<?xml version="1.0" encoding="UTF-8" standalone="no"?>
<svg
   xmlns:dc="http://purl.org/dc/elements/1.1/"
   xmlns:cc="http://creativecommons.org/ns#"
   xmlns:rdf="http://www.w3.org/1999/02/22-rdf-syntax-ns#"
   xmlns:svg="http://www.w3.org/2000/svg"
   xmlns="http://www.w3.org/2000/svg"
   xmlns:sodipodi="http://sodipodi.sourceforge.net/DTD/sodipodi-0.dtd"
   xmlns:inkscape="http://www.inkscape.org/namespaces/inkscape"
   width="101.000mm"
   height="155.953mm"
   viewBox="-393.500061 152.023560 101.000092 155.952881"
   version="1.1"
   id="svg2307"
   sodipodi:docname="the_outline_of_acrylic board.svg"
   inkscape:version="0.92.4 (5da689c313, 2019-01-14)">
  <metadata
     id="metadata2313">
    <rdf:RDF>
      <cc:Work
         rdf:about="">
        <dc:format>image/svg+xml</dc:format>
        <dc:type
           rdf:resource="http://purl.org/dc/dcmitype/StillImage" />
        <dc:title></dc:title>
      </cc:Work>
    </rdf:RDF>
  </metadata>
  <defs
     id="defs2311" />
  <sodipodi:namedview
     pagecolor="#ffffff"
     bordercolor="#666666"
     borderopacity="1"
     objecttolerance="10"
     gridtolerance="10"
     guidetolerance="10"
     inkscape:pageopacity="0"
     inkscape:pageshadow="2"
     inkscape:window-width="1920"
     inkscape:window-height="991"
     id="namedview2309"
     showgrid="false"
     inkscape:zoom="3.2031017"
     inkscape:cx="139.72576"
     inkscape:cy="316.67997"
     inkscape:window-x="-9"
     inkscape:window-y="-9"
     inkscape:window-maximized="1"
     inkscape:current-layer="svg2307" />
  <circle
     transform="matrix(1,-0.000001,-0.000001,-1,-388.320313,208.512939)"
     style="stroke:#000000;stroke-width:0.05mm;fill:none"
     r="3"
     cx="0"
     cy="0"
     id="circle2255" />
  <circle
     transform="matrix(1,-0.000001,-0.000001,-1,-379.430298,212.372849)"
     style="stroke:#000000;stroke-width:0.05mm;fill:none"
     r="3"
     cx="0"
     cy="0"
     id="circle2257" />
  <circle
     transform="scale(1,-1)"
     style="fill:none;stroke:#000000;stroke-width:0.05mm"
     r="3"
     cx="-354.20078"
     cy="-221.44249"
     id="circle2259" />
  <path
     transform="matrix(-1,0.000001,0.000001,1,8.133698,-38.061462)"
     style="stroke:#000000;stroke-width:0.05mm;fill:none"
     d="M343.402344,208.597656L343.441406,208.601563L343.480469,208.613281L343.519531,208.621094L343.558594,208.632813L343.597656,208.648438L343.703125,208.707031L343.738281,208.730469L343.769531,208.753906L343.796875,208.78125L343.828125,208.808594L343.855469,208.839844L343.878906,208.871094L343.925781,208.941406L343.945313,208.976563L343.960938,209.011719L343.976563,209.050781L343.988281,209.085938L344,209.125L344.007813,209.167969L344.015625,209.207031L344.019531,209.246094L344.019531,220.144531L344.015625,220.1875L344.011719,220.226563L344,220.265625L343.992188,220.304688L343.980469,220.34375L343.964844,220.382813L343.90625,220.488281L343.882813,220.523438L343.859375,220.554688L343.832031,220.582031L343.804688,220.613281L343.773438,220.640625L343.742188,220.664063L343.671875,220.710938L343.636719,220.730469L343.601563,220.746094L343.5625,220.761719L343.527344,220.773438L343.488281,220.785156L343.445313,220.792969L343.40625,220.800781L343.367188,220.804688L339.472656,220.804688L339.429688,220.800781L339.390625,220.796875L339.351563,220.785156L339.3125,220.777344L339.273438,220.765625L339.234375,220.75L339.128906,220.691406L339.09375,220.667969L339.0625,220.644531L339.035156,220.617188L339.003906,220.589844L338.976563,220.558594L338.953125,220.527344L338.90625,220.457031L338.886719,220.421875L338.871094,220.386719L338.855469,220.347656L338.84375,220.3125L338.832031,220.273438L338.824219,220.230469L338.816406,220.191406L338.8125,220.152344L338.8125,209.253906L338.816406,209.210938L338.820313,209.171875L338.832031,209.132813L338.839844,209.09375L338.851563,209.054688L338.867188,209.015625L338.925781,208.910156L338.949219,208.875L338.972656,208.84375L339,208.816406L339.027344,208.785156L339.058594,208.757813L339.089844,208.734375L339.160156,208.6875L339.195313,208.667969L339.230469,208.652344L339.269531,208.636719L339.304688,208.625L339.34375,208.613281L339.386719,208.605469L339.425781,208.597656L339.464844,208.59375L343.359375,208.59375L343.402344,208.597656z"
     id="path2261" />
  <path
     transform="matrix(-1,0.000001,0.000001,1,8.269684,-35.992462)"
     style="stroke:#000000;stroke-width:0.05mm;fill:none"
     d="M332.925781,202.769531L332.964844,202.773438L333.003906,202.785156L333.042969,202.792969L333.082031,202.804688L333.121094,202.820313L333.226563,202.878906L333.261719,202.902344L333.292969,202.925781L333.320313,202.953125L333.351563,202.980469L333.378906,203.011719L333.402344,203.042969L333.449219,203.113281L333.46875,203.148438L333.484375,203.183594L333.5,203.222656L333.511719,203.257813L333.523438,203.296875L333.53125,203.339844L333.539063,203.378906L333.542969,203.417969L333.542969,206.042969L333.539063,206.085938L333.535156,206.125L333.523438,206.164063L333.515625,206.203125L333.503906,206.242188L333.488281,206.28125L333.429688,206.386719L333.40625,206.421875L333.382813,206.453125L333.355469,206.480469L333.328125,206.511719L333.296875,206.539063L333.265625,206.5625L333.195313,206.609375L333.160156,206.628906L333.125,206.644531L333.085938,206.660156L333.050781,206.671875L333.011719,206.683594L332.96875,206.691406L332.929688,206.699219L332.890625,206.703125L322.648438,206.703125L322.605469,206.699219L322.566406,206.695313L322.527344,206.683594L322.488281,206.675781L322.449219,206.664063L322.410156,206.648438L322.304688,206.589844L322.269531,206.566406L322.238281,206.542969L322.210938,206.515625L322.179688,206.488281L322.152344,206.457031L322.128906,206.425781L322.082031,206.355469L322.0625,206.320313L322.046875,206.285156L322.03125,206.246094L322.019531,206.210938L322.007813,206.171875L322,206.128906L321.992188,206.089844L321.988281,206.050781L321.988281,203.425781L321.992188,203.382813L321.996094,203.34375L322.007813,203.304688L322.015625,203.265625L322.027344,203.226563L322.042969,203.1875L322.101563,203.082031L322.125,203.046875L322.148438,203.015625L322.175781,202.988281L322.203125,202.957031L322.234375,202.929688L322.265625,202.90625L322.335938,202.859375L322.371094,202.839844L322.40625,202.824219L322.445313,202.808594L322.480469,202.796875L322.519531,202.785156L322.5625,202.777344L322.601563,202.769531L322.640625,202.765625L332.882813,202.765625L332.925781,202.769531z"
     id="path2263" />
  <circle
     transform="matrix(1,-0.000001,-0.000001,-1,-389.270416,156.25293)"
     style="stroke:#000000;stroke-width:0.05mm;fill:none"
     r="1.6"
     cx="0"
     cy="0"
     id="circle2265" />
  <circle
     transform="matrix(1,-0.000001,-0.000001,-1,-297.608978,208.582932)"
     style="stroke:#000000;stroke-width:0.05mm;fill:none"
     r="3"
     cx="0"
     cy="0"
     id="circle2267" />
  <circle
     transform="matrix(1,-0.000001,-0.000001,-1,-306.519958,212.372955)"
     style="stroke:#000000;stroke-width:0.05mm;fill:none"
     r="3"
     cx="0"
     cy="0"
     id="circle2269" />
  <circle
     transform="matrix(1,-0.000001,-0.000001,-1,-296.730377,156.252808)"
     style="stroke:#000000;stroke-width:0.05mm;fill:none"
     r="1.6"
     cx="0"
     cy="0"
     id="circle2271" />
  <path
     transform="matrix(-1,0.000001,0.000001,1,6.999695,-35.992462)"
     style="stroke:#000000;stroke-width:0.05mm;fill:none"
     d="M364.003906,198.078125L364.042969,198.082031L364.082031,198.09375L364.121094,198.101563L364.160156,198.113281L364.199219,198.128906L364.304688,198.1875L364.339844,198.210938L364.371094,198.234375L364.398438,198.261719L364.429688,198.289063L364.457031,198.320313L364.480469,198.351563L364.527344,198.421875L364.546875,198.457031L364.5625,198.492188L364.578125,198.53125L364.589844,198.566406L364.601563,198.605469L364.609375,198.648438L364.617188,198.6875L364.621094,198.726563L364.621094,206.433594L364.617188,206.476563L364.613281,206.515625L364.601563,206.554688L364.59375,206.59375L364.582031,206.632813L364.566406,206.671875L364.507813,206.777344L364.484375,206.8125L364.460938,206.84375L364.433594,206.871094L364.40625,206.902344L364.375,206.929688L364.34375,206.953125L364.273438,207L364.238281,207.019531L364.203125,207.035156L364.164063,207.050781L364.128906,207.0625L364.089844,207.074219L364.046875,207.082031L364.007813,207.089844L363.96875,207.09375L358.800781,207.09375L358.757813,207.089844L358.71875,207.085938L358.679688,207.074219L358.640625,207.066406L358.601563,207.054688L358.5625,207.039063L358.457031,206.980469L358.421875,206.957031L358.390625,206.933594L358.363281,206.90625L358.332031,206.878906L358.304688,206.847656L358.28125,206.816406L358.234375,206.746094L358.214844,206.710938L358.199219,206.675781L358.183594,206.636719L358.171875,206.601563L358.160156,206.5625L358.152344,206.519531L358.144531,206.480469L358.140625,206.441406L358.140625,198.734375L358.144531,198.691406L358.148438,198.652344L358.160156,198.613281L358.167969,198.574219L358.179688,198.535156L358.195313,198.496094L358.253906,198.390625L358.277344,198.355469L358.300781,198.324219L358.328125,198.296875L358.355469,198.265625L358.386719,198.238281L358.417969,198.214844L358.488281,198.167969L358.523438,198.148438L358.558594,198.132813L358.597656,198.117188L358.632813,198.105469L358.671875,198.09375L358.714844,198.085938L358.753906,198.078125L358.792969,198.074219L363.960938,198.074219L364.003906,198.078125z"
     id="path2273" />
  <circle
     transform="matrix(1,-0.000001,-0.000001,-1,-297.609009,201.292938)"
     style="stroke:#000000;stroke-width:0.05mm;fill:none"
     r="3"
     cx="0"
     cy="0"
     id="circle2275" />
  <circle
     transform="matrix(1,-0.000001,-0.000001,-1,-306.52002,205.082947)"
     style="stroke:#000000;stroke-width:0.05mm;fill:none"
     r="3"
     cx="0"
     cy="0"
     id="circle2277" />
  <circle
     transform="matrix(-1,0.000001,0.000001,1,-373.683411,157.532867)"
     style="stroke:#000000;stroke-width:0.05mm;fill:none"
     r="3.000012"
     cx="0"
     cy="0"
     id="circle2279" />
  <circle
     transform="matrix(1,-0.000001,-0.000001,-1,-296.900299,221.023544)"
     style="stroke:#000000;stroke-width:0.05mm;fill:none"
     r="1.6"
     cx="0"
     cy="0"
     id="circle2281" />
  <path
     transform="matrix(-1,0.000001,0.000001,1,6.999695,-35.992462)"
     style="stroke:#000000;stroke-width:0.05mm;fill:none"
     d="M397.332031,188.03125L397.378906,188.035156L397.675781,188.078125L397.710938,188.085938L397.730469,188.089844L398.015625,188.164063L398.0625,188.179688L398.339844,188.28125L398.371094,188.292969L398.390625,188.300781L398.652344,188.429688L398.6875,188.449219L398.933594,188.597656L398.972656,188.625L399.207031,188.796875L399.234375,188.816406L399.25,188.832031L399.460938,189.027344L399.488281,189.054688L399.683594,189.265625L399.724609,189.310547L399.890625,189.535156L399.910156,189.566406L399.917969,189.582031L400.066406,189.832031L400.085938,189.863281L400.214844,190.125L400.226563,190.15625L400.238281,190.179688L400.335938,190.453125L400.347656,190.496094L400.421875,190.785156L400.429688,190.832031L400.476563,191.128906L400.484375,191.164063L400.484375,191.183594L400.5,191.492188L400.5,258.507813L400.484375,258.816406L400.480469,258.851563L400.476563,258.871094L400.429688,259.167969L400.421875,259.214844L400.347656,259.503906L400.335938,259.546875L400.238281,259.820313L400.222656,259.851563L400.214844,259.875L400.085938,260.136719L400.066406,260.167969L399.917969,260.417969L399.898438,260.449219L399.890625,260.464844L399.71875,260.695313L399.695313,260.71875L399.683594,260.734375L399.488281,260.945313L399.460938,260.972656L399.25,261.167969L399.222656,261.191406L399.207031,261.203125L398.972656,261.375L398.933594,261.402344L398.6875,261.550781L398.652344,261.570313L398.390625,261.699219L398.359375,261.710938L398.339844,261.71875L398.0625,261.820313L398.015625,261.835938L397.730469,261.910156L397.699219,261.917969L397.675781,261.921875L397.378906,261.964844L397.332031,261.96875L397.023438,261.984375L302.976563,261.984375L302.667969,261.96875L302.621094,261.964844L302.324219,261.921875L302.289063,261.914063L302.269531,261.910156L301.984375,261.835938L301.9375,261.820313L301.660156,261.71875L301.628906,261.707031L301.609375,261.699219L301.347656,261.570313L301.3125,261.550781L301.066406,261.402344L301.027344,261.375L300.792969,261.203125L300.765625,261.183594L300.75,261.167969L300.539063,260.972656L300.511719,260.945313L300.316406,260.734375L300.275391,260.689453L300.109375,260.464844L300.089844,260.433594L300.082031,260.417969L299.933594,260.167969L299.914063,260.136719L299.785156,259.875L299.773438,259.84375L299.761719,259.820313L299.664063,259.546875L299.652344,259.503906L299.578125,259.214844L299.570313,259.167969L299.523438,258.871094L299.515625,258.835938L299.515625,258.816406L299.5,258.507813L299.5,191.492188L299.515625,191.183594L299.519531,191.148438L299.523438,191.128906L299.570313,190.832031L299.578125,190.785156L299.652344,190.496094L299.664063,190.453125L299.761719,190.179688L299.777344,190.148438L299.785156,190.125L299.914063,189.863281L299.933594,189.832031L300.082031,189.582031L300.101563,189.550781L300.109375,189.535156L300.28125,189.304688L300.304688,189.28125L300.316406,189.265625L300.511719,189.054688L300.539063,189.027344L300.75,188.832031L300.777344,188.808594L300.792969,188.796875L301.027344,188.625L301.066406,188.597656L301.3125,188.449219L301.347656,188.429688L301.609375,188.300781L301.640625,188.289063L301.660156,188.28125L301.9375,188.179688L301.984375,188.164063L302.269531,188.089844L302.300781,188.082031L302.324219,188.078125L302.621094,188.035156L302.667969,188.03125L302.976563,188.015625L397.023438,188.015625L397.332031,188.03125z"
     id="path2283" />
  <circle
     transform="matrix(1,-0.000001,-0.000001,-1,-379.429993,205.093048)"
     style="stroke:#000000;stroke-width:0.05mm;fill:none"
     r="3"
     cx="0"
     cy="0"
     id="circle2285" />
  <circle
     transform="matrix(1,-0.000001,-0.000001,-1,-388.320007,201.283051)"
     style="stroke:#000000;stroke-width:0.05mm;fill:none"
     r="3"
     cx="0"
     cy="0"
     id="circle2287" />
  <path
     transform="matrix(1,-0.000001,-0.000001,-1,-393.000305,225.492935)"
     style="stroke:#000000;stroke-width:0.05mm;fill:none"
     d="M74.509056,4.834772C78.236977,4.834772,81.259056,7.85685,81.259056,11.584772C81.259056,15.312695,78.236977,18.334772,74.509056,18.334772L67.509056,18.334772C63.781132,18.334772,60.759056,15.312695,60.759056,11.584773C60.759056,7.856851,63.781132,4.834772,67.509056,4.834772L74.509056,4.834772z"
     id="path2289" />
  <path
     transform="matrix(-1,0.000001,0.000001,1,7.111694,-36.441452)"
     style="stroke:#000000;stroke-width:0.05mm;fill:none"
     d="M361.605469,234.5625L361.644531,234.566406L361.683594,234.578125L361.722656,234.585938L361.761719,234.597656L361.800781,234.613281L361.90625,234.671875L361.941406,234.695313L361.972656,234.71875L362,234.746094L362.03125,234.773438L362.058594,234.804688L362.082031,234.835938L362.128906,234.90625L362.148438,234.941406L362.164063,234.976563L362.179688,235.015625L362.191406,235.050781L362.203125,235.089844L362.210938,235.132813L362.21875,235.171875L362.222656,235.210938L362.222656,237.835938L362.21875,237.878906L362.214844,237.917969L362.203125,237.957031L362.195313,237.996094L362.183594,238.035156L362.167969,238.074219L362.109375,238.179688L362.085938,238.214844L362.0625,238.246094L362.035156,238.273438L362.007813,238.304688L361.976563,238.332031L361.945313,238.355469L361.875,238.402344L361.839844,238.421875L361.804688,238.4375L361.765625,238.453125L361.730469,238.464844L361.691406,238.476563L361.648438,238.484375L361.609375,238.492188L361.570313,238.496094L348.785156,238.496094L348.742188,238.492188L348.703125,238.488281L348.664063,238.476563L348.625,238.46875L348.585938,238.457031L348.546875,238.441406L348.441406,238.382813L348.40625,238.359375L348.375,238.335938L348.347656,238.308594L348.316406,238.28125L348.289063,238.25L348.265625,238.21875L348.21875,238.148438L348.199219,238.113281L348.183594,238.078125L348.167969,238.039063L348.15625,238.003906L348.144531,237.964844L348.136719,237.921875L348.128906,237.882813L348.125,237.84375L348.125,235.21875L348.128906,235.175781L348.132813,235.136719L348.144531,235.097656L348.152344,235.058594L348.164063,235.019531L348.179688,234.980469L348.238281,234.875L348.261719,234.839844L348.285156,234.808594L348.3125,234.78125L348.339844,234.75L348.371094,234.722656L348.402344,234.699219L348.472656,234.652344L348.507813,234.632813L348.542969,234.617188L348.582031,234.601563L348.617188,234.589844L348.65625,234.578125L348.699219,234.570313L348.738281,234.5625L348.777344,234.558594L361.5625,234.558594L361.605469,234.5625z"
     id="path2291" />
  <circle
     transform="matrix(1,-0.000001,-0.000001,-1,-342.833313,207.575439)"
     style="stroke:#000000;stroke-width:0.05mm;fill:none"
     r="3"
     cx="0"
     cy="0"
     id="circle2293" />
  <circle
     transform="matrix(1,-0.000001,-0.000001,-1,-389.270294,221.762955)"
     style="stroke:#000000;stroke-width:0.05mm;fill:none"
     r="1.6"
     cx="0"
     cy="0"
     id="circle2295" />
  <circle
     transform="matrix(1,-0.000001,-0.000001,-1,-389.270508,238.236847)"
     style="stroke:#000000;stroke-width:0.05mm;fill:none"
     r="1.6"
     cx="0"
     cy="0"
     id="circle2297" />
  <circle
     transform="matrix(1,-0.000001,-0.000001,-1,-296.730255,238.236847)"
     style="stroke:#000000;stroke-width:0.05mm;fill:none"
     r="1.6"
     cx="0"
     cy="0"
     id="circle2299" />
  <circle
     transform="matrix(1,-0.000001,-0.000001,-1,-296.900238,303.007538)"
     style="stroke:#000000;stroke-width:0.05mm;fill:none"
     r="1.6"
     cx="0"
     cy="0"
     id="circle2301" />
  <path
     transform="matrix(-1,0.000001,0.000001,1,6.999695,45.991547)"
     style="stroke:#000000;stroke-width:0.05mm;fill:none"
     d="M397.332031,188.03125L397.378906,188.035156L397.675781,188.078125L397.710938,188.085938L397.730469,188.089844L398.015625,188.164063L398.0625,188.179688L398.339844,188.28125L398.371094,188.292969L398.390625,188.300781L398.652344,188.429688L398.6875,188.449219L398.933594,188.597656L398.972656,188.625L399.207031,188.796875L399.234375,188.816406L399.25,188.832031L399.460938,189.027344L399.488281,189.054688L399.683594,189.265625L399.724609,189.310547L399.890625,189.535156L399.910156,189.566406L399.917969,189.582031L400.066406,189.832031L400.085938,189.863281L400.214844,190.125L400.226563,190.15625L400.238281,190.179688L400.335938,190.453125L400.347656,190.496094L400.421875,190.785156L400.429688,190.832031L400.476563,191.128906L400.484375,191.164063L400.484375,191.183594L400.5,191.492188L400.5,258.507813L400.484375,258.816406L400.480469,258.851563L400.476563,258.871094L400.429688,259.167969L400.421875,259.214844L400.347656,259.503906L400.335938,259.546875L400.238281,259.820313L400.222656,259.851563L400.214844,259.875L400.085938,260.136719L400.066406,260.167969L399.917969,260.417969L399.898438,260.449219L399.890625,260.464844L399.71875,260.695313L399.695313,260.71875L399.683594,260.734375L399.488281,260.945313L399.460938,260.972656L399.25,261.167969L399.222656,261.191406L399.207031,261.203125L398.972656,261.375L398.933594,261.402344L398.6875,261.550781L398.652344,261.570313L398.390625,261.699219L398.359375,261.710938L398.339844,261.71875L398.0625,261.820313L398.015625,261.835938L397.730469,261.910156L397.699219,261.917969L397.675781,261.921875L397.378906,261.964844L397.332031,261.96875L397.023438,261.984375L302.976563,261.984375L302.667969,261.96875L302.621094,261.964844L302.324219,261.921875L302.289063,261.914063L302.269531,261.910156L301.984375,261.835938L301.9375,261.820313L301.660156,261.71875L301.628906,261.707031L301.609375,261.699219L301.347656,261.570313L301.3125,261.550781L301.066406,261.402344L301.027344,261.375L300.792969,261.203125L300.765625,261.183594L300.75,261.167969L300.539063,260.972656L300.511719,260.945313L300.316406,260.734375L300.275391,260.689453L300.109375,260.464844L300.089844,260.433594L300.082031,260.417969L299.933594,260.167969L299.914063,260.136719L299.785156,259.875L299.773438,259.84375L299.761719,259.820313L299.664063,259.546875L299.652344,259.503906L299.578125,259.214844L299.570313,259.167969L299.523438,258.871094L299.515625,258.835938L299.515625,258.816406L299.5,258.507813L299.5,191.492188L299.515625,191.183594L299.519531,191.148438L299.523438,191.128906L299.570313,190.832031L299.578125,190.785156L299.652344,190.496094L299.664063,190.453125L299.761719,190.179688L299.777344,190.148438L299.785156,190.125L299.914063,189.863281L299.933594,189.832031L300.082031,189.582031L300.101563,189.550781L300.109375,189.535156L300.28125,189.304688L300.304688,189.28125L300.316406,189.265625L300.511719,189.054688L300.539063,189.027344L300.75,188.832031L300.777344,188.808594L300.792969,188.796875L301.027344,188.625L301.066406,188.597656L301.3125,188.449219L301.347656,188.429688L301.609375,188.300781L301.640625,188.289063L301.660156,188.28125L301.9375,188.179688L301.984375,188.164063L302.269531,188.089844L302.300781,188.082031L302.324219,188.078125L302.621094,188.035156L302.667969,188.03125L302.976563,188.015625L397.023438,188.015625L397.332031,188.03125z"
     id="path2303" />
  <circle
     transform="matrix(1,-0.000001,-0.000001,-1,-389.270508,303.746552)"
     style="stroke:#000000;stroke-width:0.05mm;fill:none"
     r="1.6"
     cx="0"
     cy="0"
     id="circle2305" />
</svg>
